<mxfile host="Electron" agent="Mozilla/5.0 (Windows NT 10.0; Win64; x64) AppleWebKit/537.36 (KHTML, like Gecko) draw.io/28.2.5 Chrome/138.0.7204.251 Electron/37.6.1 Safari/537.36" version="28.2.5">
  <diagram name="Пощаговое практическое задание" id="pCz-wbNkuNuAp-vGy3kT">
    <mxGraphModel dx="820" dy="773" grid="1" gridSize="10" guides="1" tooltips="1" connect="1" arrows="1" fold="1" page="1" pageScale="1" pageWidth="1169" pageHeight="827" math="0" shadow="0">
      <root>
        <mxCell id="0" />
        <mxCell id="1" parent="0" />
        <mxCell id="tBI_0f2VzESCNPyjfUJA-6" value="Клиент" style="shape=umlLifeline;perimeter=lifelinePerimeter;whiteSpace=wrap;html=1;container=1;dropTarget=0;collapsible=0;recursiveResize=0;outlineConnect=0;portConstraint=eastwest;newEdgeStyle={&quot;curved&quot;:0,&quot;rounded&quot;:0};participant=umlActor;size=40;verticalAlign=middle;labelPosition=center;verticalLabelPosition=middle;align=center;spacing=2;spacingTop=57;" parent="1" vertex="1">
          <mxGeometry x="70" y="80" width="20" height="960" as="geometry" />
        </mxCell>
        <mxCell id="tBI_0f2VzESCNPyjfUJA-9" value="Банк-&amp;nbsp;&lt;span style=&quot;background-color: transparent; color: light-dark(rgb(0, 0, 0), rgb(255, 255, 255));&quot;&gt;эмитент&lt;/span&gt;" style="shape=umlLifeline;perimeter=lifelinePerimeter;whiteSpace=wrap;html=1;container=1;dropTarget=0;collapsible=0;recursiveResize=0;outlineConnect=0;portConstraint=eastwest;newEdgeStyle={&quot;curved&quot;:0,&quot;rounded&quot;:0};participant=umlActor;size=40;verticalAlign=middle;labelPosition=center;verticalLabelPosition=middle;align=center;spacing=2;spacingTop=70;" parent="1" vertex="1">
          <mxGeometry x="1090" y="80" width="20" height="960" as="geometry" />
        </mxCell>
        <mxCell id="tBI_0f2VzESCNPyjfUJA-63" value="" style="html=1;points=[[0,0,0,0,5],[0,1,0,0,-5],[1,0,0,0,5],[1,1,0,0,-5]];perimeter=orthogonalPerimeter;outlineConnect=0;targetShapes=umlLifeline;portConstraint=eastwest;newEdgeStyle={&quot;curved&quot;:0,&quot;rounded&quot;:0};" parent="tBI_0f2VzESCNPyjfUJA-9" vertex="1">
          <mxGeometry x="5" y="710" width="10" height="50" as="geometry" />
        </mxCell>
        <mxCell id="tBI_0f2VzESCNPyjfUJA-11" value="Банк-&amp;nbsp;&lt;span style=&quot;background-color: transparent; color: light-dark(rgb(0, 0, 0), rgb(255, 255, 255));&quot;&gt;эквайер&lt;/span&gt;" style="shape=umlLifeline;perimeter=lifelinePerimeter;whiteSpace=wrap;html=1;container=1;dropTarget=0;collapsible=0;recursiveResize=0;outlineConnect=0;portConstraint=eastwest;newEdgeStyle={&quot;curved&quot;:0,&quot;rounded&quot;:0};participant=umlActor;size=40;verticalAlign=middle;labelPosition=center;verticalLabelPosition=middle;align=center;spacing=2;spacingTop=70;" parent="1" vertex="1">
          <mxGeometry x="980" y="80" width="20" height="960" as="geometry" />
        </mxCell>
        <mxCell id="tBI_0f2VzESCNPyjfUJA-60" value="" style="html=1;points=[[0,0,0,0,5],[0,1,0,0,-5],[1,0,0,0,5],[1,1,0,0,-5]];perimeter=orthogonalPerimeter;outlineConnect=0;targetShapes=umlLifeline;portConstraint=eastwest;newEdgeStyle={&quot;curved&quot;:0,&quot;rounded&quot;:0};" parent="tBI_0f2VzESCNPyjfUJA-11" vertex="1">
          <mxGeometry x="5" y="700" width="10" height="70" as="geometry" />
        </mxCell>
        <mxCell id="tBI_0f2VzESCNPyjfUJA-13" value="Сайт-агрегатор" style="shape=umlLifeline;perimeter=lifelinePerimeter;whiteSpace=wrap;html=1;container=1;dropTarget=0;collapsible=0;recursiveResize=0;outlineConnect=0;portConstraint=eastwest;newEdgeStyle={&quot;curved&quot;:0,&quot;rounded&quot;:0};" parent="1" vertex="1">
          <mxGeometry x="200" y="80" width="100" height="960" as="geometry" />
        </mxCell>
        <mxCell id="tBI_0f2VzESCNPyjfUJA-25" value="" style="html=1;points=[[0,0,0,0,5],[0,1,0,0,-5],[1,0,0,0,5],[1,1,0,0,-5]];perimeter=orthogonalPerimeter;outlineConnect=0;targetShapes=umlLifeline;portConstraint=eastwest;newEdgeStyle={&quot;curved&quot;:0,&quot;rounded&quot;:0};" parent="tBI_0f2VzESCNPyjfUJA-13" vertex="1">
          <mxGeometry x="45" y="70" width="15" height="860" as="geometry" />
        </mxCell>
        <mxCell id="tBI_0f2VzESCNPyjfUJA-27" value="" style="html=1;points=[[0,0,0,0,5],[0,1,0,0,-5],[1,0,0,0,5],[1,1,0,0,-5]];perimeter=orthogonalPerimeter;outlineConnect=0;targetShapes=umlLifeline;portConstraint=eastwest;newEdgeStyle={&quot;curved&quot;:0,&quot;rounded&quot;:0};" parent="tBI_0f2VzESCNPyjfUJA-13" vertex="1">
          <mxGeometry x="55" y="120" width="10" height="230" as="geometry" />
        </mxCell>
        <mxCell id="tBI_0f2VzESCNPyjfUJA-16" value="API&amp;nbsp;&lt;div&gt;&lt;span style=&quot;background-color: transparent; color: light-dark(rgb(0, 0, 0), rgb(255, 255, 255));&quot;&gt;&quot;Добролет&quot;&lt;/span&gt;&lt;/div&gt;" style="shape=umlLifeline;perimeter=lifelinePerimeter;whiteSpace=wrap;html=1;container=1;dropTarget=0;collapsible=0;recursiveResize=0;outlineConnect=0;portConstraint=eastwest;newEdgeStyle={&quot;curved&quot;:0,&quot;rounded&quot;:0};" parent="1" vertex="1">
          <mxGeometry x="340" y="80" width="100" height="960" as="geometry" />
        </mxCell>
        <mxCell id="tBI_0f2VzESCNPyjfUJA-18" value="API&lt;div&gt;&quot;Чистое небо&quot;&lt;/div&gt;" style="shape=umlLifeline;perimeter=lifelinePerimeter;whiteSpace=wrap;html=1;container=1;dropTarget=0;collapsible=0;recursiveResize=0;outlineConnect=0;portConstraint=eastwest;newEdgeStyle={&quot;curved&quot;:0,&quot;rounded&quot;:0};" parent="1" vertex="1">
          <mxGeometry x="480" y="80" width="100" height="960" as="geometry" />
        </mxCell>
        <mxCell id="tBI_0f2VzESCNPyjfUJA-44" value="" style="html=1;points=[[0,0,0,0,5],[0,1,0,0,-5],[1,0,0,0,5],[1,1,0,0,-5]];perimeter=orthogonalPerimeter;outlineConnect=0;targetShapes=umlLifeline;portConstraint=eastwest;newEdgeStyle={&quot;curved&quot;:0,&quot;rounded&quot;:0};align=right;" parent="tBI_0f2VzESCNPyjfUJA-18" vertex="1">
          <mxGeometry x="45" y="470" width="15" height="450" as="geometry" />
        </mxCell>
        <mxCell id="tBI_0f2VzESCNPyjfUJA-46" value="" style="html=1;points=[[0,0,0,0,5],[0,1,0,0,-5],[1,0,0,0,5],[1,1,0,0,-5]];perimeter=orthogonalPerimeter;outlineConnect=0;targetShapes=umlLifeline;portConstraint=eastwest;newEdgeStyle={&quot;curved&quot;:0,&quot;rounded&quot;:0};" parent="tBI_0f2VzESCNPyjfUJA-18" vertex="1">
          <mxGeometry x="55" y="500" width="10" height="360" as="geometry" />
        </mxCell>
        <mxCell id="tBI_0f2VzESCNPyjfUJA-74" value="14. Завершение&lt;div&gt;брони&lt;/div&gt;" style="html=1;align=left;spacingLeft=2;endArrow=block;rounded=0;edgeStyle=orthogonalEdgeStyle;curved=0;rounded=0;" parent="tBI_0f2VzESCNPyjfUJA-18" target="tBI_0f2VzESCNPyjfUJA-44" edge="1">
          <mxGeometry relative="1" as="geometry">
            <mxPoint x="65" y="840" as="sourcePoint" />
            <Array as="points">
              <mxPoint x="95" y="840" />
              <mxPoint x="95" y="870" />
            </Array>
            <mxPoint x="70" y="870" as="targetPoint" />
          </mxGeometry>
        </mxCell>
        <mxCell id="tBI_0f2VzESCNPyjfUJA-20" value="API&amp;nbsp;&lt;div&gt;&lt;span style=&quot;background-color: transparent; color: light-dark(rgb(0, 0, 0), rgb(255, 255, 255));&quot;&gt;&quot;Авионика&quot;&lt;/span&gt;&lt;/div&gt;" style="shape=umlLifeline;perimeter=lifelinePerimeter;whiteSpace=wrap;html=1;container=1;dropTarget=0;collapsible=0;recursiveResize=0;outlineConnect=0;portConstraint=eastwest;newEdgeStyle={&quot;curved&quot;:0,&quot;rounded&quot;:0};" parent="1" vertex="1">
          <mxGeometry x="620" y="80" width="100" height="960" as="geometry" />
        </mxCell>
        <mxCell id="tBI_0f2VzESCNPyjfUJA-30" value="" style="html=1;points=[[0,0,0,0,5],[0,1,0,0,-5],[1,0,0,0,5],[1,1,0,0,-5]];perimeter=orthogonalPerimeter;outlineConnect=0;targetShapes=umlLifeline;portConstraint=eastwest;newEdgeStyle={&quot;curved&quot;:0,&quot;rounded&quot;:0};" parent="tBI_0f2VzESCNPyjfUJA-20" vertex="1">
          <mxGeometry x="-235" y="160" width="10" height="50" as="geometry" />
        </mxCell>
        <mxCell id="tBI_0f2VzESCNPyjfUJA-35" value="" style="html=1;points=[[0,0,0,0,5],[0,1,0,0,-5],[1,0,0,0,5],[1,1,0,0,-5]];perimeter=orthogonalPerimeter;outlineConnect=0;targetShapes=umlLifeline;portConstraint=eastwest;newEdgeStyle={&quot;curved&quot;:0,&quot;rounded&quot;:0};" parent="tBI_0f2VzESCNPyjfUJA-20" vertex="1">
          <mxGeometry x="-95" y="230" width="10" height="50" as="geometry" />
        </mxCell>
        <mxCell id="tBI_0f2VzESCNPyjfUJA-38" value="" style="html=1;points=[[0,0,0,0,5],[0,1,0,0,-5],[1,0,0,0,5],[1,1,0,0,-5]];perimeter=orthogonalPerimeter;outlineConnect=0;targetShapes=umlLifeline;portConstraint=eastwest;newEdgeStyle={&quot;curved&quot;:0,&quot;rounded&quot;:0};" parent="tBI_0f2VzESCNPyjfUJA-20" vertex="1">
          <mxGeometry x="45" y="300" width="10" height="50" as="geometry" />
        </mxCell>
        <mxCell id="tBI_0f2VzESCNPyjfUJA-22" value="API&amp;nbsp;&lt;div&gt;&quot;Легкие платежи&lt;span style=&quot;background-color: transparent; color: light-dark(rgb(0, 0, 0), rgb(255, 255, 255));&quot;&gt;&quot;&lt;/span&gt;&lt;/div&gt;" style="shape=umlLifeline;perimeter=lifelinePerimeter;whiteSpace=wrap;html=1;container=1;dropTarget=0;collapsible=0;recursiveResize=0;outlineConnect=0;portConstraint=eastwest;newEdgeStyle={&quot;curved&quot;:0,&quot;rounded&quot;:0};" parent="1" vertex="1">
          <mxGeometry x="760" y="80" width="100" height="960" as="geometry" />
        </mxCell>
        <mxCell id="tBI_0f2VzESCNPyjfUJA-52" value="" style="html=1;points=[[0,0,0,0,5],[0,1,0,0,-5],[1,0,0,0,5],[1,1,0,0,-5]];perimeter=orthogonalPerimeter;outlineConnect=0;targetShapes=umlLifeline;portConstraint=eastwest;newEdgeStyle={&quot;curved&quot;:0,&quot;rounded&quot;:0};" parent="tBI_0f2VzESCNPyjfUJA-22" vertex="1">
          <mxGeometry x="45" y="580" width="10" height="50" as="geometry" />
        </mxCell>
        <mxCell id="tBI_0f2VzESCNPyjfUJA-57" value="" style="html=1;points=[[0,0,0,0,5],[0,1,0,0,-5],[1,0,0,0,5],[1,1,0,0,-5]];perimeter=orthogonalPerimeter;outlineConnect=0;targetShapes=umlLifeline;portConstraint=eastwest;newEdgeStyle={&quot;curved&quot;:0,&quot;rounded&quot;:0};" parent="tBI_0f2VzESCNPyjfUJA-22" vertex="1">
          <mxGeometry x="45" y="680" width="10" height="100" as="geometry" />
        </mxCell>
        <mxCell id="tBI_0f2VzESCNPyjfUJA-24" value="GET&lt;br&gt;1. Войти на сайт" style="html=1;verticalAlign=bottom;endArrow=block;curved=0;rounded=0;fontSize=10;" parent="1" edge="1">
          <mxGeometry x="-0.003" width="80" relative="1" as="geometry">
            <mxPoint x="79.5" y="160" as="sourcePoint" />
            <mxPoint x="245" y="160" as="targetPoint" />
            <mxPoint as="offset" />
          </mxGeometry>
        </mxCell>
        <mxCell id="tBI_0f2VzESCNPyjfUJA-26" value="GET&lt;br&gt;2. Запросить авиабилеты по&lt;div&gt;параметрам поиска&lt;/div&gt;" style="html=1;verticalAlign=bottom;endArrow=block;curved=0;rounded=0;fontSize=10;" parent="1" edge="1">
          <mxGeometry x="-0.003" width="80" relative="1" as="geometry">
            <mxPoint x="80" y="210" as="sourcePoint" />
            <mxPoint x="255" y="210" as="targetPoint" />
            <mxPoint as="offset" />
          </mxGeometry>
        </mxCell>
        <mxCell id="tBI_0f2VzESCNPyjfUJA-28" value="GET&lt;br&gt;3.1 Получить данные" style="html=1;verticalAlign=bottom;endArrow=open;curved=0;rounded=0;entryX=0.454;entryY=0.497;entryDx=0;entryDy=0;entryPerimeter=0;fontSize=10;endFill=0;" parent="1" edge="1">
          <mxGeometry x="-0.003" width="80" relative="1" as="geometry">
            <mxPoint x="265" y="250.00000000000003" as="sourcePoint" />
            <mxPoint x="385.4000000000001" y="250.00000000000003" as="targetPoint" />
            <mxPoint as="offset" />
          </mxGeometry>
        </mxCell>
        <mxCell id="tBI_0f2VzESCNPyjfUJA-31" value="Ответ" style="html=1;verticalAlign=bottom;endArrow=open;dashed=1;endSize=8;curved=0;rounded=0;fontSize=10;exitX=-0.135;exitY=0.825;exitDx=0;exitDy=0;exitPerimeter=0;" parent="1" source="tBI_0f2VzESCNPyjfUJA-30" target="tBI_0f2VzESCNPyjfUJA-27" edge="1">
          <mxGeometry relative="1" as="geometry">
            <mxPoint x="380" y="260" as="sourcePoint" />
            <mxPoint x="300" y="260" as="targetPoint" />
          </mxGeometry>
        </mxCell>
        <mxCell id="tBI_0f2VzESCNPyjfUJA-33" value="GET&lt;br&gt;3.2&lt;span style=&quot;background-color: light-dark(#ffffff, var(--ge-dark-color, #121212)); color: light-dark(rgb(0, 0, 0), rgb(255, 255, 255));&quot;&gt;&amp;nbsp;Получить данные&lt;/span&gt;" style="html=1;verticalAlign=bottom;endArrow=open;curved=0;rounded=0;fontSize=10;entryX=-0.025;entryY=0.196;entryDx=0;entryDy=0;entryPerimeter=0;endFill=0;" parent="1" source="tBI_0f2VzESCNPyjfUJA-27" target="tBI_0f2VzESCNPyjfUJA-35" edge="1">
          <mxGeometry x="-0.003" width="80" relative="1" as="geometry">
            <mxPoint x="270" y="300" as="sourcePoint" />
            <mxPoint x="520" y="300" as="targetPoint" />
            <mxPoint as="offset" />
          </mxGeometry>
        </mxCell>
        <mxCell id="tBI_0f2VzESCNPyjfUJA-34" value="Ответ" style="html=1;verticalAlign=bottom;endArrow=open;dashed=1;endSize=8;curved=0;rounded=0;fontSize=10;exitX=-0.033;exitY=0.801;exitDx=0;exitDy=0;exitPerimeter=0;" parent="1" source="tBI_0f2VzESCNPyjfUJA-35" target="tBI_0f2VzESCNPyjfUJA-27" edge="1">
          <mxGeometry relative="1" as="geometry">
            <mxPoint x="520" y="330" as="sourcePoint" />
            <mxPoint x="270" y="330" as="targetPoint" />
          </mxGeometry>
        </mxCell>
        <mxCell id="tBI_0f2VzESCNPyjfUJA-39" value="GET&lt;br&gt;3.3&lt;span style=&quot;background-color: light-dark(#ffffff, var(--ge-dark-color, #121212)); color: light-dark(rgb(0, 0, 0), rgb(255, 255, 255));&quot;&gt;&amp;nbsp;Получить данные&lt;/span&gt;" style="html=1;verticalAlign=bottom;endArrow=open;curved=0;rounded=0;fontSize=10;endFill=0;" parent="1" edge="1">
          <mxGeometry x="-0.003" width="80" relative="1" as="geometry">
            <mxPoint x="265" y="389.9999999999999" as="sourcePoint" />
            <mxPoint x="665" y="389.9999999999999" as="targetPoint" />
            <mxPoint as="offset" />
          </mxGeometry>
        </mxCell>
        <mxCell id="tBI_0f2VzESCNPyjfUJA-40" value="Ответ" style="html=1;verticalAlign=bottom;endArrow=open;dashed=1;endSize=8;curved=0;rounded=0;fontSize=10;entryX=1;entryY=1;entryDx=0;entryDy=-5;entryPerimeter=0;" parent="1" source="tBI_0f2VzESCNPyjfUJA-38" target="tBI_0f2VzESCNPyjfUJA-27" edge="1">
          <mxGeometry relative="1" as="geometry">
            <mxPoint x="659" y="402" as="sourcePoint" />
            <mxPoint x="410" y="403" as="targetPoint" />
          </mxGeometry>
        </mxCell>
        <mxCell id="tBI_0f2VzESCNPyjfUJA-41" value="Авиабилеты, подходящие&lt;div&gt;под запрос поиска&lt;/div&gt;" style="html=1;verticalAlign=bottom;endArrow=open;dashed=1;endSize=8;curved=0;rounded=0;fontSize=10;exitX=0;exitY=1;exitDx=0;exitDy=-5;exitPerimeter=0;" parent="1" edge="1">
          <mxGeometry relative="1" as="geometry">
            <mxPoint x="245" y="480" as="sourcePoint" />
            <mxPoint x="80.05555555555554" y="480" as="targetPoint" />
          </mxGeometry>
        </mxCell>
        <mxCell id="tBI_0f2VzESCNPyjfUJA-42" value="par" style="shape=umlFrame;whiteSpace=wrap;html=1;pointerEvents=0;fontSize=10;" parent="1" vertex="1">
          <mxGeometry x="180" y="220" width="550" height="220" as="geometry" />
        </mxCell>
        <mxCell id="tBI_0f2VzESCNPyjfUJA-43" value="POST&lt;br&gt;4. Забронировать авиабилет" style="html=1;verticalAlign=bottom;endArrow=block;curved=0;rounded=0;fontSize=10;" parent="1" edge="1">
          <mxGeometry x="-0.003" width="80" relative="1" as="geometry">
            <mxPoint x="80" y="520" as="sourcePoint" />
            <mxPoint x="245.5" y="520" as="targetPoint" />
            <mxPoint as="offset" />
          </mxGeometry>
        </mxCell>
        <mxCell id="tBI_0f2VzESCNPyjfUJA-45" value="POST&lt;br&gt;5. Забронировать авиабилет" style="html=1;verticalAlign=bottom;endArrow=block;curved=0;rounded=0;fontSize=10;" parent="1" target="tBI_0f2VzESCNPyjfUJA-44" edge="1">
          <mxGeometry x="-0.003" width="80" relative="1" as="geometry">
            <mxPoint x="260" y="560" as="sourcePoint" />
            <mxPoint x="520" y="560" as="targetPoint" />
            <mxPoint as="offset" />
          </mxGeometry>
        </mxCell>
        <mxCell id="tBI_0f2VzESCNPyjfUJA-48" value="6. Создание брони&lt;div&gt;[T = 15 мин]&lt;/div&gt;" style="html=1;align=left;spacingLeft=2;endArrow=block;rounded=0;edgeStyle=orthogonalEdgeStyle;curved=0;rounded=0;" parent="1" edge="1">
          <mxGeometry x="-0.5294" y="20" relative="1" as="geometry">
            <mxPoint x="540" y="570" as="sourcePoint" />
            <Array as="points">
              <mxPoint x="570" y="600" />
            </Array>
            <mxPoint x="545" y="600.0000000000001" as="targetPoint" />
            <mxPoint as="offset" />
          </mxGeometry>
        </mxCell>
        <mxCell id="tBI_0f2VzESCNPyjfUJA-49" value="Ответ&lt;div&gt;Информация о брони билета&lt;/div&gt;" style="html=1;verticalAlign=bottom;endArrow=open;dashed=1;endSize=8;curved=0;rounded=0;fontSize=10;" parent="1" source="tBI_0f2VzESCNPyjfUJA-44" edge="1">
          <mxGeometry relative="1" as="geometry">
            <mxPoint x="520" y="620" as="sourcePoint" />
            <mxPoint x="260" y="620" as="targetPoint" />
          </mxGeometry>
        </mxCell>
        <mxCell id="tBI_0f2VzESCNPyjfUJA-50" value="Билет забронирован&lt;div&gt;на 15 минут&lt;/div&gt;" style="html=1;verticalAlign=bottom;endArrow=open;dashed=1;endSize=8;curved=0;rounded=0;fontSize=10;exitX=0;exitY=1;exitDx=0;exitDy=-5;exitPerimeter=0;" parent="1" edge="1">
          <mxGeometry x="0.0024" relative="1" as="geometry">
            <mxPoint x="244.94444444444446" y="640" as="sourcePoint" />
            <mxPoint x="80" y="640" as="targetPoint" />
            <mxPoint as="offset" />
          </mxGeometry>
        </mxCell>
        <mxCell id="tBI_0f2VzESCNPyjfUJA-51" value="GET&lt;br&gt;7. Запросить форму для оплаты" style="html=1;verticalAlign=bottom;endArrow=block;curved=0;rounded=0;fontSize=10;align=center;" parent="1" target="tBI_0f2VzESCNPyjfUJA-52" edge="1">
          <mxGeometry x="0.5799" width="80" relative="1" as="geometry">
            <mxPoint x="260" y="670" as="sourcePoint" />
            <mxPoint x="700" y="670" as="targetPoint" />
            <mxPoint as="offset" />
          </mxGeometry>
        </mxCell>
        <mxCell id="tBI_0f2VzESCNPyjfUJA-53" value="Ответ&lt;div&gt;Форма для оплаты&lt;/div&gt;" style="html=1;verticalAlign=bottom;endArrow=open;dashed=1;endSize=8;curved=0;rounded=0;fontSize=10;" parent="1" edge="1">
          <mxGeometry relative="1" as="geometry">
            <mxPoint x="803" y="700" as="sourcePoint" />
            <mxPoint x="260" y="700" as="targetPoint" />
            <Array as="points">
              <mxPoint x="803" y="700" />
            </Array>
          </mxGeometry>
        </mxCell>
        <mxCell id="tBI_0f2VzESCNPyjfUJA-54" value="Форма для оплаты" style="html=1;verticalAlign=bottom;endArrow=open;dashed=1;endSize=8;curved=0;rounded=0;fontSize=10;exitX=0;exitY=1;exitDx=0;exitDy=-5;exitPerimeter=0;" parent="1" edge="1">
          <mxGeometry x="0.0047" relative="1" as="geometry">
            <mxPoint x="244.94444444444446" y="710" as="sourcePoint" />
            <mxPoint x="80" y="710" as="targetPoint" />
            <mxPoint as="offset" />
          </mxGeometry>
        </mxCell>
        <mxCell id="tBI_0f2VzESCNPyjfUJA-55" value="POST&lt;br&gt;8. Оплатить авиабилет" style="html=1;verticalAlign=bottom;endArrow=block;curved=0;rounded=0;fontSize=10;" parent="1" edge="1">
          <mxGeometry x="-0.003" width="80" relative="1" as="geometry">
            <mxPoint x="80" y="750" as="sourcePoint" />
            <mxPoint x="245.5" y="750" as="targetPoint" />
            <mxPoint as="offset" />
          </mxGeometry>
        </mxCell>
        <mxCell id="tBI_0f2VzESCNPyjfUJA-56" value="POST&lt;br&gt;9. Передать данные для оплаты" style="html=1;verticalAlign=bottom;endArrow=block;curved=0;rounded=0;fontSize=10;" parent="1" source="tBI_0f2VzESCNPyjfUJA-25" target="tBI_0f2VzESCNPyjfUJA-57" edge="1">
          <mxGeometry x="-0.003" width="80" relative="1" as="geometry">
            <mxPoint x="270" y="770" as="sourcePoint" />
            <mxPoint x="800" y="770" as="targetPoint" />
            <mxPoint as="offset" />
            <Array as="points">
              <mxPoint x="330" y="770" />
            </Array>
          </mxGeometry>
        </mxCell>
        <mxCell id="tBI_0f2VzESCNPyjfUJA-59" value="POST&lt;br&gt;10. Передать данные для оплаты" style="html=1;verticalAlign=bottom;endArrow=block;curved=0;rounded=0;fontSize=10;entryX=0;entryY=0;entryDx=0;entryDy=5;entryPerimeter=0;" parent="1" source="tBI_0f2VzESCNPyjfUJA-57" target="tBI_0f2VzESCNPyjfUJA-60" edge="1">
          <mxGeometry x="-0.003" width="80" relative="1" as="geometry">
            <mxPoint x="820" y="780" as="sourcePoint" />
            <mxPoint x="985.5" y="780" as="targetPoint" />
            <mxPoint as="offset" />
          </mxGeometry>
        </mxCell>
        <mxCell id="tBI_0f2VzESCNPyjfUJA-61" value="GET&lt;br&gt;11. Запросить&amp;nbsp;&lt;div&gt;денежные&lt;div&gt;средства&lt;/div&gt;&lt;/div&gt;" style="html=1;verticalAlign=bottom;endArrow=block;curved=0;rounded=0;fontSize=10;entryX=0;entryY=0;entryDx=0;entryDy=5;entryPerimeter=0;" parent="1" source="tBI_0f2VzESCNPyjfUJA-60" target="tBI_0f2VzESCNPyjfUJA-63" edge="1">
          <mxGeometry x="-0.003" width="80" relative="1" as="geometry">
            <mxPoint x="1000" y="800" as="sourcePoint" />
            <mxPoint x="1090" y="800" as="targetPoint" />
            <mxPoint as="offset" />
          </mxGeometry>
        </mxCell>
        <mxCell id="tBI_0f2VzESCNPyjfUJA-64" value="Оплата&amp;nbsp;&lt;div&gt;произведена&lt;/div&gt;" style="html=1;verticalAlign=bottom;endArrow=open;dashed=1;endSize=8;curved=0;rounded=0;fontSize=10;exitX=0;exitY=1;exitDx=0;exitDy=-5;exitPerimeter=0;" parent="1" source="tBI_0f2VzESCNPyjfUJA-63" target="tBI_0f2VzESCNPyjfUJA-60" edge="1">
          <mxGeometry x="0.0047" relative="1" as="geometry">
            <mxPoint x="1084.9444444444443" y="840" as="sourcePoint" />
            <mxPoint x="920" y="840" as="targetPoint" />
            <mxPoint as="offset" />
          </mxGeometry>
        </mxCell>
        <mxCell id="tBI_0f2VzESCNPyjfUJA-65" value="Оплата&amp;nbsp;&lt;div&gt;подтверждена&lt;/div&gt;" style="html=1;verticalAlign=bottom;endArrow=open;dashed=1;endSize=8;curved=0;rounded=0;fontSize=10;exitX=0;exitY=1;exitDx=0;exitDy=-5;exitPerimeter=0;" parent="1" source="tBI_0f2VzESCNPyjfUJA-60" target="tBI_0f2VzESCNPyjfUJA-57" edge="1">
          <mxGeometry x="0.0047" relative="1" as="geometry">
            <mxPoint x="970" y="840" as="sourcePoint" />
            <mxPoint x="870" y="840" as="targetPoint" />
            <mxPoint as="offset" />
          </mxGeometry>
        </mxCell>
        <mxCell id="tBI_0f2VzESCNPyjfUJA-66" value="Данные об оплате" style="html=1;verticalAlign=bottom;endArrow=open;dashed=1;endSize=8;curved=0;rounded=0;fontSize=10;exitX=0;exitY=1;exitDx=0;exitDy=-5;exitPerimeter=0;" parent="1" source="tBI_0f2VzESCNPyjfUJA-57" target="tBI_0f2VzESCNPyjfUJA-25" edge="1">
          <mxGeometry x="0.0047" relative="1" as="geometry">
            <mxPoint x="800" y="860" as="sourcePoint" />
            <mxPoint x="630" y="860" as="targetPoint" />
            <mxPoint as="offset" />
          </mxGeometry>
        </mxCell>
        <mxCell id="tBI_0f2VzESCNPyjfUJA-67" value="12. SMS о переводе денег" style="html=1;verticalAlign=bottom;endArrow=none;curved=0;rounded=0;fontSize=10;startArrow=block;startFill=1;align=left;" parent="1" source="tBI_0f2VzESCNPyjfUJA-6" target="tBI_0f2VzESCNPyjfUJA-9" edge="1">
          <mxGeometry x="-0.9402" width="80" relative="1" as="geometry">
            <mxPoint x="545" y="890" as="sourcePoint" />
            <mxPoint x="1090" y="890" as="targetPoint" />
            <mxPoint x="1" as="offset" />
            <Array as="points">
              <mxPoint x="615" y="890" />
            </Array>
          </mxGeometry>
        </mxCell>
        <mxCell id="tBI_0f2VzESCNPyjfUJA-68" value="POST&lt;br&gt;13. Подтверждение оплаты" style="html=1;verticalAlign=bottom;endArrow=block;curved=0;rounded=0;fontSize=10;" parent="1" target="tBI_0f2VzESCNPyjfUJA-46" edge="1">
          <mxGeometry x="-0.003" width="80" relative="1" as="geometry">
            <mxPoint x="260" y="930" as="sourcePoint" />
            <mxPoint x="425.5" y="930" as="targetPoint" />
            <mxPoint as="offset" />
          </mxGeometry>
        </mxCell>
        <mxCell id="tBI_0f2VzESCNPyjfUJA-69" value="POST&lt;br&gt;15. Данные авиабилета" style="html=1;verticalAlign=bottom;endArrow=none;curved=0;rounded=0;fontSize=10;startFill=1;startArrow=block;entryX=-0.031;entryY=0.977;entryDx=0;entryDy=0;entryPerimeter=0;" parent="1" source="tBI_0f2VzESCNPyjfUJA-25" target="tBI_0f2VzESCNPyjfUJA-44" edge="1">
          <mxGeometry x="-0.003" width="80" relative="1" as="geometry">
            <mxPoint x="256.25" y="990" as="sourcePoint" />
            <mxPoint x="523.75" y="990" as="targetPoint" />
            <mxPoint as="offset" />
          </mxGeometry>
        </mxCell>
        <mxCell id="tBI_0f2VzESCNPyjfUJA-71" value="Авиабилеты" style="html=1;verticalAlign=bottom;endArrow=open;dashed=1;endSize=8;curved=0;rounded=0;fontSize=10;exitX=0;exitY=1;exitDx=0;exitDy=-5;exitPerimeter=0;" parent="1" edge="1">
          <mxGeometry x="0.0047" relative="1" as="geometry">
            <mxPoint x="244.94444444444446" y="1000" as="sourcePoint" />
            <mxPoint x="80" y="1000" as="targetPoint" />
            <mxPoint as="offset" />
          </mxGeometry>
        </mxCell>
      </root>
    </mxGraphModel>
  </diagram>
</mxfile>
